<?xml version="1.0" standalone="no"?>
<!DOCTYPE svg PUBLIC "-//W3C//DTD SVG 20010904//EN"
 "http://www.w3.org/TR/2001/REC-SVG-20010904/DTD/svg10.dtd">
<svg version="1.0" xmlns="http://www.w3.org/2000/svg"
 width="592.000000pt" height="592.000000pt" viewBox="0 0 592.000000 592.000000"
 preserveAspectRatio="xMidYMid meet">
<metadata>
Created by potrace 1.11, written by Peter Selinger 2001-2013
</metadata>
<g transform="translate(0.000000,592.000000) scale(0.100000,-0.100000)"
fill="#000000" stroke="none">
<path d="M3000 5725 c-1170 -103 -1773 -160 -1809 -171 -67 -20 -136 -81 -167
-149 -27 -57 -31 -142 -14 -300 5 -49 8 -90 7 -91 -1 -1 -87 -10 -192 -19
-172 -14 -196 -19 -252 -46 -58 -28 -102 -70 -131 -125 -37 -70 -40 -25 163
-2338 107 -1224 197 -2238 201 -2253 17 -72 79 -149 149 -185 22 -11 67 -23
100 -25 65 -5 3606 302 3665 317 58 16 128 67 160 117 49 77 54 109 40 276 -6
82 -9 151 -6 154 3 3 90 14 193 23 104 10 202 23 218 29 52 21 104 62 134 108
62 93 72 -71 -144 2382 -215 2457 -195 2284 -273 2364 -59 62 -104 80 -202 83
-50 2 -808 -61 -1840 -151z m537 -1286 c167 -44 330 -156 427 -293 105 -148
146 -278 153 -487 5 -126 3 -157 -16 -230 -76 -302 -301 -512 -616 -573 -44
-9 -183 -25 -309 -36 -126 -11 -231 -22 -233 -24 -2 -2 9 -157 26 -343 34
-382 33 -393 -28 -454 -73 -74 -179 -74 -254 -1 -20 20 -42 52 -47 72 -10 40
-190 2079 -190 2159 0 28 7 65 15 80 20 39 69 78 113 91 20 6 183 24 362 40
359 32 471 32 597 -1z"/>
<path d="M3008 4102 l-178 -16 0 -30 c1 -48 78 -907 82 -911 6 -6 445 34 504
46 82 16 171 64 227 122 218 223 145 629 -138 768 -67 33 -74 34 -195 36 -69
0 -205 -6 -302 -15z"/>
</g>
</svg>
