<svg xmlns="http://www.w3.org/2000/svg" viewBox="0 0 640 216">
  <g fill="none" fill-rule="evenodd">
    <g transform="translate(-1 -1)">
      <rect width="152.4" height="183.2" x="8.7" y="28.4" fill="#3E51A8" rx="10.6" transform="rotate(-5 84.9 120)"/>
      <rect width="152.4" height="183.2" x="30" y="6.7" fill="#5C79FA" rx="10.6" transform="rotate(-5 106.2 98.3)"/>
      <path fill="#FFF" stroke="#FFF" stroke-width="1.3" d="M96 138.9c.2 1.7-.2 3.1-1.2 4.4-1 1.2-2.4 1.9-4.2 2a5.8 5.8 0 0 1-6.4-5.4l-6.8-77.1a5.8 5.8 0 0 1 5.4-6.4l22.8-2c5.6-.6 10.8.2 15.4 2.4 4.7 2 8.5 5.3 11.3 9.5 2.9 4.3 4.6 9.3 5 15 .5 5.5-.3 10.6-2.3 15.1-2.1 4.6-5.3 8.3-9.5 11a31 31 0 0 1-14.8 5L94 114l2.1 25zm13.8-37.4c5.1-.4 9.2-2.5 12.3-6 3-3.7 4.3-8 3.9-13.2-.5-5.4-2.6-9.7-6.2-13a17 17 0 0 0-13.2-4l-16.9 1.4L93 103l16.9-1.5z"/>
    </g>
    <path fill="#1F222E" d="M266.2 146V43.8H309c4.5 0 8.6.9 12.4 2.8 3.8 1.8 7 4.3 9.8 7.5a35.7 35.7 0 0 1 8.7 22.3 35.3 35.3 0 0 1-8.3 22.8c-2.6 3-5.8 5.5-9.5 7.3a27.4 27.4 0 0 1-12.3 2.8h-30.5V146h-13zm13-48.2H309a15.7 15.7 0 0 0 12.8-6.3c1.6-2 2.8-4.3 3.6-6.8a25.8 25.8 0 0 0-.2-16.6c-1-2.6-2.3-4.9-4-6.8-1.7-1.9-3.7-3.4-6-4.4-2.2-1-4.6-1.6-7-1.6h-29v42.5zm94 49.6a27 27 0 0 1-9.9-1.8 23.4 23.4 0 0 1-13.3-12.4 22 22 0 0 1 .3-18.7c1.6-2.8 3.8-5.2 6.6-7.2s6.2-3.6 10-4.8c4-1.1 8.2-1.7 12.8-1.7a62.7 62.7 0 0 1 21 3.7v-6c0-6.2-1.7-11-5.1-14.5-3.5-3.5-8.4-5.2-14.7-5.2a42 42 0 0 0-24 8.7l-4.1-8.2a52 52 0 0 1 29.2-9.8 32 32 0 0 1 23.1 8 29.4 29.4 0 0 1 8.3 22.3v30.6c0 3 1.4 4.6 4 4.7V146a111 111 0 0 1-6 .6 8 8 0 0 1-6-2.3 9.2 9.2 0 0 1-2.6-5.4l-.3-5.3c-3.4 4.5-7.6 8-12.8 10.3a39.1 39.1 0 0 1-16.5 3.5zm3.3-9.5c4.6 0 8.8-.8 12.6-2.5 4-1.7 6.9-3.9 8.9-6.7 1.8-1.8 2.7-3.7 2.7-5.6v-11a52.2 52.2 0 0 0-19.1-3.7c-6.4 0-11.5 1.4-15.5 4-4 2.7-6 6.2-6 10.6a14.3 14.3 0 0 0 4.7 10.6 18 18 0 0 0 11.7 4.3zm97.7 9.5c-6.3 0-11.8-1.5-16.5-4.6a35 35 0 0 1-11.3-11.6v45.5h-12.7V70.8H445V85c3-4.6 6.9-8.3 11.6-11.1a32 32 0 0 1 30-1c4.4 2 8.1 4.9 11.3 8.5a40.1 40.1 0 0 1 10 27.1c0 5.4-.7 10.5-2.4 15.2a38 38 0 0 1-6.9 12.4c-3 3.5-6.5 6.3-10.6 8.3-4.2 2.1-8.7 3.1-13.7 3.1zm-4-10.9c3.8 0 7.2-.8 10.2-2.4 3-1.6 5.7-3.7 7.8-6.3a31.8 31.8 0 0 0 4.7-30.1 29 29 0 0 0-5.5-9 26 26 0 0 0-8.1-6 23.3 23.3 0 0 0-10.2-2.2c-2.3 0-4.6.4-7 1.3-2.5 1-4.8 2.2-7 3.6-2.2 1.5-4 3.3-5.6 5.4-1.6 2-2.6 4.2-3.1 6.5v21.5a32.6 32.6 0 0 0 9.6 12.6c2.1 1.6 4.4 2.8 6.8 3.7a21 21 0 0 0 7.5 1.4zm86.5 11a38.3 38.3 0 0 1-27.7-11.6 40.7 40.7 0 0 1 0-54.9A37.6 37.6 0 0 1 557 69.6a37 37 0 0 1 37.6 38.3 52.3 52.3 0 0 1-.3 5h-62.3c.3 3.7 1.1 7 2.6 10.2a26.3 26.3 0 0 0 13.4 13 23.4 23.4 0 0 0 16 1c2.3-.6 4.4-1.5 6.3-2.5 1.9-1 3.6-2.4 5-4 1.6-1.4 2.7-3.2 3.5-5l11 3c-1.3 2.7-3 5.3-5.2 7.6a38.7 38.7 0 0 1-27.7 11.4zm25.8-44.1a27 27 0 0 0-8.3-17.6 25.1 25.1 0 0 0-17.4-6.8 25.2 25.2 0 0 0-17.3 6.9c-2.3 2.1-4.1 4.7-5.5 7.7-1.4 3-2.2 6.2-2.5 9.8h51zm26.3-62.5h12.7v85.7c0 2.7.7 5 2.2 6.5a8.2 8.2 0 0 0 6.3 2.4 30.6 30.6 0 0 0 7.8-1.7l2 10.2a41.3 41.3 0 0 1-15.1 3c-5 0-8.8-1.4-11.6-4.2a15.6 15.6 0 0 1-4.3-11.6V40.9z"/>
  </g>
</svg>
