<svg width="27" height="27" xmlns="http://www.w3.org/2000/svg">
  <g fill-rule="nonzero" fill="none">
    <path d="M26 8.4a13.4 13.4 0 0 1-14.4 18.3l6.2-10.8a5 5 0 0 0-4.3-7.5h12.4z" fill="#C0CCFF"/>
    <path d="M26 8.4H13.4a5 5 0 0 0-4.3 7.4L3 5a13.4 13.4 0 0 1 23 3.3z" fill="#5D76E6"/>
    <path d="M17.8 15.9l-6.2 10.8A13.4 13.4 0 0 1 3 5l6.2 10.7c.4.8 1 1.5 1.8 1.9a5 5 0 0 0 6.8-1.8z" fill="#556EDE"/>
    <path d="M16.4 8.3a6 6 0 1 1-8.1 8 6 6 0 0 1 5.2-8.8c1 0 2 .2 3 .8z" fill="#667FEF"/>
    <path d="M13.4 19.8A6.4 6.4 0 0 1 8 16.6 6.4 6.4 0 0 1 13.4 7c1 0 2.2.3 3.1.9a6.3 6.3 0 0 1 2.4 8.7 6.4 6.4 0 0 1-5.6 3.2zm0-11.9a5.5 5.5 0 0 0-4.8 8.2 5.4 5.4 0 0 0 4.8 2.8 5.5 5.5 0 0 0 5.4-7 5.5 5.5 0 0 0-5.3-4z" fill="#FFF"/>
  </g>
</svg>
