<svg xmlns="http://www.w3.org/2000/svg" viewBox="0 0 511.9 511.9">
  <path d="M469.3 128a42.7 42.7 0 0 0-40.5 55.8l-34.6 22a53.3 53.3 0 0 1-70-11.2L290.4 153a42.7 42.7 0 1 0-68.7 0l-33.9 41.5a53.3 53.3 0 0 1-69.9 11.2l-34.6-22A42.7 42.7 0 1 0 38.9 213l25.2 151.3c.9 5.1 5.4 8.9 10.6 8.9h362.6c5.2 0 9.7-3.8 10.5-9l25.3-151.2a42.7 42.7 0 0 0-3.8-85.1z" fill="#ffc107"/>
  <ellipse cx="256" cy="362.6" rx="181.3" ry="53.3" fill="#ffa000"/>
  <path d="M256 426.6c-95.4 0-192-22-192-64s96.6-64 192-64 192 22 192 64-96.6 64-192 64zm0-106.6c-112 0-170.7 27.7-170.7 42.6S144 405.3 256 405.3s170.7-27.7 170.7-42.7S368 320 256 320z" fill="#ffd54f"/>
</svg>
