<svg xmlns="http://www.w3.org/2000/svg" width="512" height="512">
  <path d="M447 299.8c-6-76.4-41.5-124.2-72.9-166.5-29-39-54.1-72.8-54.1-122.6A10.7 10.7 0 0 0 303.1 2c-47 33.7-86.4 90.5-100.1 144.7-9.5 37.8-10.8 80.2-11 108.2-43.5-9.3-53.3-74.4-53.4-75a10.7 10.7 0 0 0-15.3-8.2c-2.2 1.2-56 28.4-59 137.4-.3 3.6-.3 7.3-.3 10.9 0 105.9 86.1 192 192 192H256.6a192.2 192.2 0 0 0 190.3-212.2zM256 490.7c-35.3 0-64-30.6-64-68.2v-4.2a86.5 86.5 0 0 1 6.8-33.8C205 397.7 216.1 410 234 410c6 0 10.7-4.8 10.7-10.7 0-15.2.3-32.7 4.1-48.5 3.4-14 11.4-29 21.6-41 4.5 15.6 13.4 28.2 22 40.4 12.3 17.6 25 35.7 27.3 66.6.2 1.9.3 3.7.3 5.7 0 37.6-28.7 68.2-64 68.2z" fill="#FF5A5A"/>
</svg>
