<svg viewBox="0 0 300 300" xmlns="http://www.w3.org/2000/svg">
  <g fill="#0277bd">
    <path d="M106.2 32.8h-6.3c-7.6-.1-13.9 4-19.4 8.3a32.3 32.3 0 0 0-12.7 19c-.9 4.9-.7 9.1-.7 13.3v33.2c0 11.7-4.4 20.4-10.3 26.1a53.8 53.8 0 0 1-18.5 9v15c7.2 2 14 4.7 17.9 8.1A31 31 0 0 1 67 188.7v38.8c0 12.8 3 22.6 12 29.4 9 6.7 19.3 10 31.2 10.4h8v-19.4c-6.2-1.8-9.7-4-12.2-6.3-4.4-4-7-10.7-7-19.8v-31.3c-.1-10.6-1.8-19-5.7-25a47.1 47.1 0 0 0-22.7-15.8 47.8 47.8 0 0 0 25-22.3 54 54 0 0 0 3.4-22V76.7c0-9.5 2.2-16 6-19.9 2.1-2 5.8-3.7 11-5.1h8v-19h-18zM193.8 32.8h6.3c7.6-.1 13.9 4 19.4 8.3 6 4.7 11 10.8 12.7 19 .9 4.9.7 9.1.7 13.3v33.2c0 11.7 4.4 20.4 10.3 26.1a53.8 53.8 0 0 0 18.5 9v15c-7.2 2-14 4.7-17.9 8.1a31 31 0 0 0-10.9 23.9v38.8c0 12.8-3 22.6-12 29.4-9 6.7-19.3 10-31.2 10.4h-8v-19.4c6.2-1.8 9.7-4 12.1-6.3 4.5-4 7-10.7 7-19.8v-31.3c.2-10.6 2-19 5.8-25 3.9-6 11.5-11.3 22.7-15.8a47.8 47.8 0 0 1-25-22.3 54 54 0 0 1-3.4-22V76.7c0-9.5-2.2-16-6-19.9-2.1-2-5.8-3.7-11-5.1h-8v-19h17.9z"/>
  </g>
</svg>
